<svg width="250" height="250" viewBox="0 0 250 250" fill="none" xmlns="http://www.w3.org/2000/svg">
<path d="M124.595 66.4423C146.98 66.4423 168.449 75.3349 184.278 91.164C200.107 106.993 209 128.462 209 150.847C209 173.233 200.107 194.702 184.278 210.531C168.449 226.36 146.98 235.253 124.595 235.253C102.209 235.253 80.7403 226.36 64.9113 210.531C49.0822 194.702 40.1896 173.233 40.1896 150.847C40.1896 128.462 49.0822 106.993 64.9113 91.164C80.7403 75.3349 102.209 66.4423 124.595 66.4423ZM124.595 103.37L110.647 131.645L79.438 136.182L102.016 158.18L96.6883 189.262L124.595 174.586L152.501 189.252L147.173 158.18L169.752 136.172L138.543 131.635L124.595 103.37ZM135.145 13.6785L187.899 13.689V45.341L173.518 57.3476C161.584 51.0903 148.555 47.1928 135.145 45.8685V13.6785ZM114.044 13.6785V45.8579C100.638 47.1836 87.6129 51.0811 75.682 57.3371L61.2909 45.341V13.689L114.044 13.6785Z" fill="white"/>
</svg>
