<svg width="250" height="250" viewBox="0 0 250 250" fill="none" xmlns="http://www.w3.org/2000/svg">
<path d="M87.6955 35.5496C99.4074 30.7297 111.947 28.2414 124.612 28.2241C137.239 28.2241 149.769 30.7302 161.529 35.5496C173.192 40.369 183.794 47.5017 192.758 56.4658C201.722 65.4299 208.855 76.0325 213.674 87.6955C218.494 99.4548 221 111.985 221 124.612C221 150.155 210.879 174.734 192.758 192.758C183.818 201.72 173.196 208.829 161.502 213.675C149.807 218.522 137.271 221.011 124.612 221C111.947 220.983 99.4074 218.494 87.6955 213.674C76.0109 208.825 65.3983 201.717 56.4658 192.758C47.5036 183.818 40.3953 173.196 35.5488 161.502C30.7024 149.807 28.2132 137.271 28.2242 124.612C28.2242 99.0692 38.3449 74.4903 56.4658 56.4658C65.4299 47.5017 76.0326 40.369 87.6955 35.5496ZM124.612 172.806L139.649 139.841L172.806 124.612L139.649 109.576L124.612 76.4181L109.479 109.576L76.4181 124.612L109.479 139.841L124.612 172.806Z" fill="white"/>
</svg>
