<svg width="251" height="251" viewBox="0 0 251 251" fill="none" xmlns="http://www.w3.org/2000/svg">
<path fill-rule="evenodd" clip-rule="evenodd" d="M125.5 0C56.1864 0 0 56.1864 0 125.5C0 194.814 56.1864 251 125.5 251C194.814 251 251 194.814 251 125.5C251 56.1864 194.814 0 125.5 0ZM125.5 12.55C125.5 42.5062 113.6 71.2355 92.4177 92.4177C71.2355 113.6 42.5062 125.5 12.55 125.5C42.5062 125.5 71.2355 137.4 92.4177 158.582C113.6 179.765 125.5 208.494 125.5 238.45C125.5 208.494 137.4 179.765 158.582 158.582C179.765 137.4 208.494 125.5 238.45 125.5C208.494 125.5 179.765 113.6 158.582 92.4177C137.4 71.2355 125.5 42.5062 125.5 12.55Z" fill="white"/>
</svg>
